<?xml version="1.0" encoding="utf-8"?>
<!-- Generated with PSSVG  <> -->
<svg viewBox="0 0 188 96" xmlns:xlink="http://www.w3.org/1999/xlink" xmlns="http://www.w3.org/2000/svg">
  <clipPath id="foldedPageCorner">
    <path d="M 12.5 81.5 l 0 -38.5 6.5 -6.5 40.5 0 0 47 -47 0 z" />
  </clipPath>
  <rect clip-path="url(#foldedPageCorner)" x="13" y="37" rx="2" ry="2" width="46" height="46" stroke="black" stroke-width="1" fill="white" />
  <rect clip-path="url(#foldedPageCorner)" id="flap" x="11" y="35" rx="2" ry="2" width="8" height="8" stroke="black" stroke-width="1" fill="white" />
  <path d="M 13 44 l 0 -1 6 -6 38 0" fill="none" stroke="black" stroke-width="1" />
  <path d="M 41 54 l -15 0 0 -15 5 0 1 2 10 0 0 2" stroke-width="1" stroke-linecap="round" stroke="black" fill="none" />
  <path d="M 26 54 l 4-9 10 0 1.77777777777778 -2 5 0 -4.88888888888889 11" stroke-width="1" stroke-linecap="round" stroke="black" fill="none" />
  <path d="M 42 50 l 0 -1 C 42 44 46 44 46 49 l 0 1" stroke-width="1" stroke-linecap="round" stroke="black" fill="white" />
  <path d="M 41 56 l 0 -6 l 6 0 0 6 C 47 57 41 57 41 56" stroke-width="1" stroke-linecap="round" stroke="black" fill="white" />
  <circle cx="44" cy="52.5" r="1" stroke-width="1" stroke-linecap="round" stroke="black" fill="none" />
  <path d="M 44 53.5 l 0 1.5" stroke-width="1" stroke-linecap="round" stroke="black" fill="none" />
  <circle cx="24" cy="64" r="4" fill="none" stroke="black" stroke-width="1" />
  <clipPath id="b0717b0f-a771-4706-a22e-6b35a4923dc0">
    <path d="M 24 76 l 9 -9 0 -1 -18 0 0 10 z" />
  </clipPath>
  <circle cx="24" cy="76" r="8" fill="none" stroke="black" stroke-width="1" clip-path="url(#b0717b0f-a771-4706-a22e-6b35a4923dc0)" />
  <path d="M23 75l3 3 7.5-7.5" fill="none" stroke="green" stroke-width="2" stroke-linecap="round" />
  <circle cx="49" cy="64" r="4" fill="none" stroke="black" stroke-width="1" />
  <clipPath id="7285f5a3-1589-433f-b1fb-f9d8428305e5">
    <path d="M 49 76 l 9 -9 0 -1 -18 0 0 10 z" />
  </clipPath>
  <circle cx="49" cy="76" r="8" fill="none" stroke="black" stroke-width="1" clip-path="url(#7285f5a3-1589-433f-b1fb-f9d8428305e5)" />
  <circle cx="52" cy="75.2" r="4" fill="red" stroke="red" />
  <rect x="49" y="74.2" width="6.4" height="1.6" fill="white" />
  <text x="50%" y="25%" font-size="12" dominant-baseline="middle" text-anchor="middle" fill="black">Export-Permission</text>
  <text x="61%" y="61%" font-size="6" dominant-baseline="middle" text-anchor="middle" fill="black">
    <tspan dy="-1.2em">Create CSV, HTML, JSON, and XML</tspan>
    <tspan x="61%" dy="1.2em">exports of permissions</tspan>
  </text>
</svg>
